<?xml version="1.0" encoding="UTF-8"?>
<svg id="Layer_2" data-name="Layer 2" xmlns="http://www.w3.org/2000/svg" viewBox="0 0 897.31 225.84">
  <defs>
    <style>
      .cls-1 {
        fill: #dbdfd8;
      }
    </style>
  </defs>
  <g id="_2-FG" data-name="2-FG">
    <g>
      <g>
        <path class="cls-1" d="m36.03,111.19v30.79h68.57v31.45H36.03v52.41H0V79.53h113.12v31.67H36.03Z"/>
        <path class="cls-1" d="m262.49,225.84h-43.46l-44.11-50.23h-10.48v50.23h-36.03V79.53h74.03c15.87,0,28.61,4.41,38.22,13.21,9.61,8.81,14.41,20.35,14.41,34.61,0,11.94-3.42,22.02-10.26,30.25-6.84,8.23-16.23,13.65-28.17,16.27l45.86,51.97Zm-98.05-80.36h34.07c6.4,0,11.54-1.6,15.4-4.8,3.86-3.2,5.79-7.5,5.79-12.88s-1.93-9.46-5.79-12.67c-3.86-3.2-8.99-4.8-15.4-4.8h-34.07v35.16Z"/>
        <path class="cls-1" d="m422.56,225.84h-38.44l-10.26-26.64h-61.58l-10.26,26.64h-38.65l61.15-146.31h36.91l61.15,146.31Zm-60.71-57.65l-18.78-48.04-18.56,48.04h37.34Z"/>
        <path class="cls-1" d="m601.85,79.53v146.31h-34.94v-72.94l-38.22,72.94h-22.27l-38.44-73.38v73.38h-34.94V79.53h35.38l49.14,90.63,49.14-90.63h35.16Z"/>
        <path class="cls-1" d="m738.99,194.83v31.01h-113.99V79.53h113.34v31.01h-77.31v27.52h70.97v29.26h-70.97v27.52h77.96Z"/>
        <path class="cls-1" d="m759.3,79.53h57.87c24.02,0,43.38,6.74,58.09,20.2,14.7,13.47,22.06,31.12,22.06,52.96s-7.35,39.49-22.06,52.96c-14.71,13.47-34.07,20.2-58.09,20.2h-57.87V79.53Zm36.03,115.09h20.53c13.68,0,24.64-3.82,32.87-11.46,8.22-7.64,12.34-17.8,12.34-30.46s-4.12-22.82-12.34-30.46c-8.23-7.64-19.18-11.46-32.87-11.46h-20.53v83.86Z"/>
      </g>
      <g>
        <path class="cls-1" d="m211.62,59.84h-18.08l-3.23-8.91h-23.06l-3.32,8.91h-17.99L169.52,1.31h18.52l23.59,58.53Zm-26.38-22.97l-6.38-17.56-6.46,17.56h12.84Z"/>
        <path class="cls-1" d="m328.59,1.31l-22.89,40.62v17.91h-17.47v-17.91L266.13,1.31h18.43l12.75,23.76,12.67-23.76h18.61Z"/>
        <path class="cls-1" d="m396.98,45.68v14.15h-46.56V1.31h46.21v14.15h-29.44v8.65h27.08v12.84h-27.08v8.74h29.79Z"/>
        <path class="cls-1" d="m483.37,59.84h-18.08l-3.23-8.91h-23.06l-3.32,8.91h-17.99L441.27,1.31h18.52l23.59,58.53Zm-26.38-22.97l-6.38-17.56-6.46,17.56h12.84Z"/>
        <path class="cls-1" d="m560.24,59.84h-20.18l-16.07-18.69h-2.27v18.69h-16.77V1.31h31.18c6.29,0,11.37,1.81,15.24,5.42,3.87,3.61,5.81,8.36,5.81,14.24,0,4.66-1.25,8.66-3.76,12.01-2.5,3.35-5.94,5.69-10.31,7.03l17.12,19.83Zm-38.52-31.97h11.27c2.33,0,4.19-.6,5.59-1.79,1.4-1.19,2.1-2.75,2.1-4.67s-.7-3.36-2.1-4.5c-1.4-1.14-3.26-1.7-5.59-1.7h-11.27v12.67Z"/>
        <path class="cls-1" d="m626.5,8.87c6.08-5.91,13.55-8.87,22.41-8.87s16.32,2.96,22.41,8.87c6.08,5.91,9.13,13.15,9.13,21.71s-3.04,15.8-9.13,21.71c-6.09,5.91-13.55,8.87-22.41,8.87s-16.32-2.96-22.41-8.87c-6.09-5.91-9.13-13.15-9.13-21.71s3.04-15.8,9.13-21.71Zm11.97,32.76c2.77,2.94,6.25,4.41,10.44,4.41s7.67-1.47,10.44-4.41c2.77-2.94,4.15-6.62,4.15-11.05s-1.38-8.04-4.15-11.01c-2.77-2.97-6.25-4.46-10.44-4.46s-7.67,1.49-10.44,4.46c-2.77,2.97-4.15,6.64-4.15,11.01s1.38,8.11,4.15,11.05Z"/>
        <path class="cls-1" d="m721.41,15.81v10.31h26.56v14.59h-26.56v19.13h-16.77V1.31h46.73v14.5h-29.96Z"/>
      </g>
    </g>
  </g>
</svg>