<?xml version="1.0" encoding="UTF-8"?>
<svg id="Layer_2" data-name="Layer 2" xmlns="http://www.w3.org/2000/svg" viewBox="0 0 901.35 283.1">
  <defs>
    <style>
      .cls-1 {
        fill: #dbdfd8;
      }

      .cls-2 {
        fill: #8a8a8a;
      }
    </style>
  </defs>
  <g id="_2-FG" data-name="2-FG">
    <g>
      <g>
        <path class="cls-1" d="m36.03,111.19v30.79h68.57v31.45H36.03v52.41H0V79.53h113.12v31.67H36.03Z"/>
        <path class="cls-1" d="m262.49,225.84h-43.46l-44.11-50.23h-10.48v50.23h-36.03V79.53h74.03c15.87,0,28.61,4.41,38.22,13.21,9.61,8.81,14.41,20.35,14.41,34.61,0,11.94-3.42,22.02-10.26,30.25-6.84,8.23-16.23,13.65-28.17,16.27l45.86,51.97Zm-98.05-80.36h34.07c6.4,0,11.54-1.6,15.4-4.8,3.86-3.2,5.79-7.5,5.79-12.88s-1.93-9.46-5.79-12.67c-3.86-3.2-8.99-4.8-15.4-4.8h-34.07v35.16Z"/>
        <path class="cls-1" d="m422.56,225.84h-38.44l-10.26-26.64h-61.58l-10.26,26.64h-38.65l61.15-146.31h36.91l61.15,146.31Zm-60.71-57.65l-18.78-48.04-18.56,48.04h37.34Z"/>
        <path class="cls-1" d="m601.85,79.53v146.31h-34.94v-72.94l-38.22,72.94h-22.27l-38.44-73.38v73.38h-34.94V79.53h35.38l49.14,90.63,49.14-90.63h35.16Z"/>
        <path class="cls-1" d="m738.99,194.83v31.01h-113.99V79.53h113.34v31.01h-77.31v27.52h70.97v29.26h-70.97v27.52h77.96Z"/>
        <path class="cls-1" d="m759.3,79.53h57.87c24.02,0,43.38,6.74,58.09,20.2,14.7,13.47,22.06,31.12,22.06,52.96s-7.35,39.49-22.06,52.96c-14.71,13.47-34.07,20.2-58.09,20.2h-57.87V79.53Zm36.03,115.09h20.53c13.68,0,24.64-3.82,32.87-11.46,8.22-7.64,12.34-17.8,12.34-30.46s-4.12-22.82-12.34-30.46c-8.23-7.64-19.18-11.46-32.87-11.46h-20.53v83.86Z"/>
      </g>
      <g>
        <path class="cls-1" d="m211.62,59.84h-18.08l-3.23-8.91h-23.06l-3.32,8.91h-17.99L169.52,1.31h18.52l23.59,58.53Zm-26.38-22.97l-6.38-17.56-6.46,17.56h12.84Z"/>
        <path class="cls-1" d="m328.59,1.31l-22.89,40.62v17.91h-17.47v-17.91L266.13,1.31h18.43l12.75,23.76,12.67-23.76h18.61Z"/>
        <path class="cls-1" d="m396.98,45.68v14.15h-46.56V1.31h46.21v14.15h-29.44v8.65h27.08v12.84h-27.08v8.74h29.79Z"/>
        <path class="cls-1" d="m483.37,59.84h-18.08l-3.23-8.91h-23.06l-3.32,8.91h-17.99L441.27,1.31h18.52l23.59,58.53Zm-26.38-22.97l-6.38-17.56-6.46,17.56h12.84Z"/>
        <path class="cls-1" d="m560.24,59.84h-20.18l-16.07-18.69h-2.27v18.69h-16.77V1.31h31.18c6.29,0,11.37,1.81,15.24,5.42,3.87,3.61,5.81,8.36,5.81,14.24,0,4.66-1.25,8.66-3.76,12.01-2.5,3.35-5.94,5.69-10.31,7.03l17.12,19.83Zm-38.52-31.97h11.27c2.33,0,4.19-.6,5.59-1.79,1.4-1.19,2.1-2.75,2.1-4.67s-.7-3.36-2.1-4.5c-1.4-1.14-3.26-1.7-5.59-1.7h-11.27v12.67Z"/>
        <path class="cls-1" d="m626.5,8.87c6.08-5.91,13.55-8.87,22.41-8.87s16.32,2.96,22.41,8.87c6.08,5.91,9.13,13.15,9.13,21.71s-3.04,15.8-9.13,21.71c-6.09,5.91-13.55,8.87-22.41,8.87s-16.32-2.96-22.41-8.87c-6.09-5.91-9.13-13.15-9.13-21.71s3.04-15.8,9.13-21.71Zm11.97,32.76c2.77,2.94,6.25,4.41,10.44,4.41s7.67-1.47,10.44-4.41c2.77-2.94,4.15-6.62,4.15-11.05s-1.38-8.04-4.15-11.01c-2.77-2.97-6.25-4.46-10.44-4.46s-7.67,1.49-10.44,4.46c-2.77,2.97-4.15,6.64-4.15,11.01s1.38,8.11,4.15,11.05Z"/>
        <path class="cls-1" d="m721.41,15.81v10.31h26.56v14.59h-26.56v19.13h-16.77V1.31h46.73v14.5h-29.96Z"/>
      </g>
      <g>
        <path class="cls-2" d="m14.32,255.49l-1.32,4.78h3.46c3.59,0,6.39.83,8.39,2.49,2,1.66,3,4.08,3,7.27,0,3.69-1.3,6.79-3.89,9.28-2.59,2.49-5.99,3.74-10.19,3.74-3.9,0-7.02-1.08-9.35-3.25-2.34-2.17-3.47-5.05-3.41-8.64l7.68-1.47c.03,1.97.53,3.53,1.47,4.7.95,1.17,2.3,1.75,4.07,1.75,1.66,0,3-.49,4.02-1.47,1.02-.98,1.52-2.19,1.52-3.61,0-1.32-.46-2.33-1.37-3.03-.92-.69-2.14-1.04-3.66-1.04H3.65l5.19-18.76h22.42l-1.73,7.27h-15.2Z"/>
        <path class="cls-2" d="m41.57,274.96h11.69l-1.83,7.32h-24.91l1.63-5.49,14.08-11.03c2.27-1.8,3.74-3.15,4.42-4.07.85-1.15,1.27-2.3,1.27-3.46s-.35-2.07-1.04-2.75c-.69-.68-1.67-1.02-2.92-1.02-2.81,0-4.52,1.83-5.13,5.49l-7.83-1.47c.51-3.39,2.02-6.08,4.52-8.06,2.51-1.98,5.54-2.97,9.1-2.97s6.12.91,8.19,2.72c2.07,1.81,3.1,4.25,3.1,7.29,0,2.34-.72,4.53-2.16,6.58-1.44,2.05-3.69,4.28-6.74,6.69l-5.44,4.22Z"/>
        <path class="cls-2" d="m116.15,248.22l-17.59,34.06h-9.1l-.81-21.05-10.63,21.05h-8.85l-1.83-34.06h8.24l.97,21.45,10.98-21.45h8.03l.76,21.45,10.88-21.45h8.95Z"/>
        <path class="cls-2" d="m123.78,255.44l-1.47,6.41h16.57l-1.58,6.81h-16.52l-1.47,6.41h18.15l-1.68,7.22h-26.49l7.83-34.06h26.33l-1.63,7.22h-18.05Z"/>
        <path class="cls-2" d="m153.06,255.44l-1.47,6.41h16.57l-1.58,6.81h-16.52l-1.47,6.41h18.15l-1.68,7.22h-26.49l7.83-34.06h26.33l-1.63,7.22h-18.05Z"/>
        <path class="cls-2" d="m188.29,265.91l11.13,16.37h-10.02l-8.44-12.81h-2.14l-2.95,12.81h-8.39l7.88-34.06h8.34l-3.1,13.52h.86l14.44-13.52h11.03l-18.66,17.69Z"/>
        <path class="cls-2" d="m218.59,247.46c3.76,0,6.81.86,9.15,2.57,2.34,1.71,3.73,4.14,4.17,7.3l-8.44,1.68c-.07-1.42-.61-2.57-1.63-3.43s-2.31-1.3-3.86-1.3c-1.42,0-2.59.36-3.51,1.07-.92.71-1.37,1.61-1.37,2.69s.85,1.97,2.54,2.54l5.13,1.63c2.54.81,4.46,1.93,5.75,3.36,1.29,1.42,1.93,3.3,1.93,5.64,0,3.56-1.35,6.42-4.04,8.59-2.69,2.17-6.23,3.25-10.6,3.25-3.9,0-7.2-.91-9.91-2.72-2.71-1.81-4.22-4.35-4.52-7.6l8.85-1.68c.44,3.32,2.49,4.98,6.15,4.98,1.69,0,3.03-.35,3.99-1.04s1.45-1.62,1.45-2.77c0-.64-.23-1.18-.69-1.6-.46-.42-1.28-.8-2.47-1.14l-4.22-1.22c-2.58-.81-4.6-1.91-6.08-3.28-1.47-1.37-2.21-3.28-2.21-5.72,0-3.52,1.34-6.37,4.02-8.54,2.68-2.17,6.15-3.25,10.42-3.25Z"/>
        <path class="cls-2" d="m260.64,247.41c5.25,0,9.44,1.75,12.56,5.24,3.12,3.49,4.34,7.71,3.66,12.66-.68,5.29-2.86,9.58-6.56,12.86-3.69,3.29-8.19,4.93-13.47,4.93s-9.39-1.72-12.51-5.16c-3.12-3.44-4.34-7.67-3.66-12.68.68-4.98,2.95-9.2,6.81-12.66s8.25-5.19,13.17-5.19Zm-3.51,28.01c2.91,0,5.43-.95,7.55-2.85s3.38-4.32,3.79-7.27c.37-2.91-.23-5.35-1.8-7.29s-3.69-2.92-6.33-2.92c-2.92,0-5.43.97-7.55,2.9-2.12,1.93-3.36,4.37-3.74,7.32-.41,2.88.19,5.29,1.78,7.22,1.59,1.93,3.69,2.9,6.3,2.9Z"/>
        <path class="cls-2" d="m289.77,255.59l-1.68,7.17h16.01l-1.68,7.32h-16.01l-2.8,12.2h-8.34l7.83-34.06h26.33l-1.68,7.37h-18Z"/>
        <path class="cls-2" d="m353.82,248.22l-21.91,34.06h-8.13l-6.2-34.06h8.59l3.71,22.93,14.03-22.93h9.91Z"/>
        <path class="cls-2" d="m355.3,282.28h-8.34l7.83-34.06h8.34l-7.83,34.06Z"/>
        <path class="cls-2" d="m393.83,257.78c0,2.88-.93,5.42-2.8,7.6-1.86,2.19-4.37,3.7-7.52,4.55l6.96,12.35h-9.35l-6.2-11.69h-5.13l-2.69,11.69h-8.34l7.83-34.06h16.07c3.42,0,6.14.85,8.16,2.54,2.02,1.7,3.02,4.03,3.02,7.02Zm-22.42,5.8h7.27c2,0,3.61-.46,4.83-1.37s1.83-2.08,1.83-3.51c0-1.08-.36-1.91-1.09-2.47-.73-.56-1.72-.84-2.97-.84h-7.98l-1.88,8.18Z"/>
        <path class="cls-2" d="m424.34,255.54h-11.03l-6.15,26.74h-8.39l6.2-26.74h-11.03l1.68-7.32h30.4l-1.68,7.32Z"/>
        <path class="cls-2" d="m457.89,248.22l-4.32,18.71c-1.15,5.08-3.25,9.04-6.28,11.87-3.03,2.83-6.97,4.25-11.82,4.25-4.37,0-7.81-1.5-10.32-4.5-2.51-3-3.22-6.87-2.14-11.62l4.32-18.71h8.34l-4.27,18.71c-.61,2.58-.44,4.62.51,6.13.95,1.51,2.49,2.26,4.63,2.26s3.84-.75,5.41-2.26c1.58-1.51,2.65-3.55,3.23-6.13l4.32-18.71h8.39Z"/>
        <path class="cls-2" d="m486.21,282.28h-8.59l-.97-6.2h-14.29l-3.86,6.2h-9.41l22.11-34.06h8.64l6.35,34.06Zm-10.68-13.42l-1.73-11.18-6.96,11.18h8.69Z"/>
        <path class="cls-2" d="m513.51,274.96l-1.68,7.32h-25.17l7.83-34.06h8.34l-6.15,26.74h16.83Z"/>
        <path class="cls-2" d="m530.74,248.22h15.46c3.46,0,6.24.92,8.36,2.75,2.12,1.83,3.18,4.3,3.18,7.42,0,3.93-1.45,7.16-4.35,9.68-2.9,2.53-6.67,3.79-11.31,3.79h-8.44l-2.39,10.42h-8.34l7.83-34.06Zm4.52,16.62h7.12c1.97,0,3.6-.53,4.91-1.6,1.3-1.07,1.96-2.42,1.96-4.04,0-1.19-.37-2.12-1.12-2.8-.75-.68-1.81-1.02-3.2-1.02h-7.47l-2.19,9.46Z"/>
        <path class="cls-2" d="m593.22,248.22l-7.83,34.06h-8.34l3.1-13.47h-14.39l-3.1,13.47h-8.34l7.83-34.06h8.34l-3.05,13.27h14.39l3.05-13.27h8.34Z"/>
        <path class="cls-2" d="m611.57,247.41c5.25,0,9.44,1.75,12.56,5.24,3.12,3.49,4.34,7.71,3.66,12.66-.68,5.29-2.86,9.58-6.56,12.86-3.69,3.29-8.19,4.93-13.47,4.93s-9.39-1.72-12.51-5.16c-3.12-3.44-4.34-7.67-3.66-12.68.68-4.98,2.95-9.2,6.81-12.66s8.25-5.19,13.17-5.19Zm-3.51,28.01c2.91,0,5.43-.95,7.55-2.85s3.38-4.32,3.79-7.27c.37-2.91-.23-5.35-1.8-7.29s-3.69-2.92-6.33-2.92c-2.92,0-5.43.97-7.55,2.9-2.12,1.93-3.36,4.37-3.74,7.32-.41,2.88.19,5.29,1.78,7.22,1.59,1.93,3.69,2.9,6.3,2.9Z"/>
        <path class="cls-2" d="m659.46,255.54h-11.03l-6.15,26.74h-8.39l6.2-26.74h-11.03l1.68-7.32h30.4l-1.68,7.32Z"/>
        <path class="cls-2" d="m676.09,247.41c5.25,0,9.44,1.75,12.56,5.24,3.12,3.49,4.34,7.71,3.66,12.66-.68,5.29-2.86,9.58-6.56,12.86-3.69,3.29-8.19,4.93-13.47,4.93s-9.39-1.72-12.51-5.16c-3.12-3.44-4.34-7.67-3.66-12.68.68-4.98,2.95-9.2,6.81-12.66s8.25-5.19,13.17-5.19Zm-3.51,28.01c2.91,0,5.43-.95,7.55-2.85s3.38-4.32,3.79-7.27c.37-2.91-.23-5.35-1.8-7.29s-3.69-2.92-6.33-2.92c-2.92,0-5.43.97-7.55,2.9-2.12,1.93-3.36,4.37-3.74,7.32-.41,2.88.19,5.29,1.78,7.22,1.59,1.93,3.69,2.9,6.3,2.9Z"/>
        <path class="cls-2" d="m711.62,262.2h18.25c-.07,1.25-.17,2.29-.3,3.1-.98,5.53-3.24,9.86-6.76,13.01-3.53,3.15-7.98,4.73-13.37,4.73-4.81,0-8.69-1.43-11.64-4.3-2.95-2.86-4.42-6.58-4.42-11.16,0-5.56,2.04-10.3,6.13-14.24,4.08-3.93,9.07-5.9,14.97-5.9,3.86,0,7.2.9,10.02,2.7,2.81,1.8,4.52,4.3,5.13,7.52l-8.69,1.88c-.98-2.95-3.32-4.42-7.02-4.42-3.32,0-6.16,1.13-8.52,3.38-2.36,2.25-3.53,5.01-3.53,8.26,0,2.54.77,4.62,2.31,6.23,1.54,1.61,3.58,2.42,6.13,2.42,2.2,0,4.14-.57,5.82-1.7,1.68-1.13,2.85-2.6,3.53-4.4h-9.71l1.68-7.12Z"/>
        <path class="cls-2" d="m763.02,257.78c0,2.88-.93,5.42-2.8,7.6-1.86,2.19-4.37,3.7-7.52,4.55l6.96,12.35h-9.35l-6.2-11.69h-5.13l-2.69,11.69h-8.34l7.83-34.06h16.07c3.42,0,6.14.85,8.16,2.54,2.02,1.7,3.02,4.03,3.02,7.02Zm-22.42,5.8h7.27c2,0,3.61-.46,4.83-1.37s1.83-2.08,1.83-3.51c0-1.08-.36-1.91-1.09-2.47-.73-.56-1.72-.84-2.97-.84h-7.98l-1.88,8.18Z"/>
        <path class="cls-2" d="m794.54,282.28h-8.59l-.97-6.2h-14.29l-3.86,6.2h-9.41l22.11-34.06h8.64l6.35,34.06Zm-10.68-13.42l-1.73-11.18-6.96,11.18h8.69Z"/>
        <path class="cls-2" d="m802.83,248.22h15.46c3.46,0,6.24.92,8.36,2.75,2.12,1.83,3.18,4.3,3.18,7.42,0,3.93-1.45,7.16-4.35,9.68-2.9,2.53-6.67,3.79-11.31,3.79h-8.44l-2.39,10.42h-8.34l7.83-34.06Zm4.52,16.62h7.12c1.97,0,3.6-.53,4.91-1.6,1.3-1.07,1.96-2.42,1.96-4.04,0-1.19-.37-2.12-1.12-2.8-.75-.68-1.81-1.02-3.2-1.02h-7.47l-2.19,9.46Z"/>
        <path class="cls-2" d="m865.31,248.22l-7.83,34.06h-8.34l3.1-13.47h-14.39l-3.1,13.47h-8.34l7.83-34.06h8.34l-3.05,13.27h14.39l3.05-13.27h8.34Z"/>
        <path class="cls-2" d="m882.44,271.66l-2.49,10.62h-8.54l2.49-10.62-7.78-23.44h8.49l4.93,14.95,11.74-14.95h10.07l-18.91,23.44Z"/>
      </g>
    </g>
  </g>
</svg>